<?xml version="1.0" standalone="no"?>
<!DOCTYPE svg PUBLIC "-//W3C//DTD SVG 20010904//EN"
 "http://www.w3.org/TR/2001/REC-SVG-20010904/DTD/svg10.dtd">
<svg version="1.0" xmlns="http://www.w3.org/2000/svg"
 width="96.000000pt" height="96.000000pt" viewBox="0 0 96.000000 96.000000"
 preserveAspectRatio="xMidYMid meet">
<metadata>
Created by potrace 1.14, written by Peter Selinger 2001-2017
</metadata>
<g transform="translate(0.000000,96.000000) scale(0.100000,-0.100000)"
fill="#000000" stroke="none">
<path d="M318 941 c-119 -38 -207 -114 -256 -219 -24 -50 -27 -68 -26 -157 1
-68 6 -111 17 -135 l16 -35 -6 55 c-12 122 51 262 154 340 79 62 150 83 256
78 98 -4 172 -34 241 -98 93 -86 132 -192 123 -335 l-5 -91 28 -2 c27 -2 29 0
45 70 43 189 -59 404 -235 493 -112 57 -244 70 -352 36z"/>
<path d="M318 720 c-26 -16 -41 -72 -28 -106 37 -96 125 -80 125 23 0 37 -5
49 -28 69 -31 26 -43 29 -69 14z"/>
<path d="M522 723 c-20 -8 -42 -59 -42 -96 0 -78 80 -104 115 -36 40 76 -6
159 -73 132z"/>
<path d="M180 535 c-16 -41 15 -95 55 -95 47 0 60 49 24 94 -27 34 -66 35 -79
1z"/>
<path d="M636 538 c-34 -49 -11 -106 39 -94 31 8 47 38 43 79 -3 28 -7 32 -35
35 -23 2 -35 -3 -47 -20z"/>
<path d="M387 483 c-8 -10 -34 -43 -56 -73 -33 -44 -41 -63 -41 -97 0 -32 5
-46 22 -57 31 -22 46 -20 84 9 39 30 70 32 98 6 34 -31 60 -34 89 -10 41 31
36 69 -20 151 -26 39 -55 74 -65 79 -29 15 -94 11 -111 -8z"/>
</g>
</svg>
